<svg width="20" height="23" viewBox="0 0 20 23" fill="none" xmlns="http://www.w3.org/2000/svg">
<path d="M10 9.2C12.7625 9.2 15 7.1415 15 4.6C15 2.0585 12.7625 0 10 0C7.23755 0 5.00006 2.0585 5.00006 4.6C5.00006 7.1415 7.23755 9.2 10 9.2ZM10 2.3C11.375 2.3 12.5 3.335 12.5 4.6C12.5 5.865 11.375 6.9 10 6.9C8.62505 6.9 7.50005 5.865 7.50005 4.6C7.50005 3.335 8.62505 2.3 10 2.3ZM17.9875 12.144C15.8875 11.155 13.1625 10.35 10 10.35C6.83755 10.35 4.11257 11.155 2.01257 12.144C1.40265 12.433 0.891704 12.8719 0.536454 13.4119C0.181203 13.9518 -0.00445668 14.5718 8.12375e-05 15.203V23H2.50007V15.203C2.50007 14.766 2.75007 14.375 3.12507 14.191C4.63756 13.4895 7.03755 12.65 10 12.65C10.95 12.65 11.8375 12.7305 12.6625 12.88L10.725 16.675H7.18755C5.28756 16.675 3.75007 18.0895 3.75007 19.8375C3.75007 21.5855 5.28756 23 7.18755 23H17.5C18.875 23 20 21.965 20 20.7V15.203C20 13.915 19.2375 12.7305 17.9875 12.144ZM8.67505 20.7H7.18755C6.67505 20.7 6.25006 20.309 6.25006 19.8375C6.25006 19.366 6.67505 18.975 7.18755 18.975H9.55004L8.67505 20.7ZM17.5 20.7H11.4375L15.1125 13.4895C15.7875 13.7195 16.375 13.961 16.875 14.191C17.25 14.375 17.5 14.766 17.5 15.203V20.7Z" fill="#443E3E"/>
</svg>
