<svg width="25" height="23" viewBox="0 0 25 23" fill="none" xmlns="http://www.w3.org/2000/svg">
<path d="M8.33397 14.6324C9.25774 14.6322 10.1554 14.9401 10.8858 15.5076C11.6162 16.0752 12.1378 16.8703 12.3688 17.7679H23.9566C24.2168 17.7674 24.4678 17.8648 24.6602 18.0407C24.8525 18.2167 24.9722 18.4585 24.9957 18.7187C25.0193 18.9788 24.9449 19.2383 24.7872 19.4461C24.6296 19.6539 24.4001 19.795 24.144 19.8415L23.9566 19.8583L12.3688 19.8604C12.1386 20.7587 11.6173 21.5547 10.8868 22.1231C10.1564 22.6915 9.25829 23 8.33397 23C7.40966 23 6.51158 22.6915 5.78114 22.1231C5.05069 21.5547 4.52934 20.7587 4.29918 19.8604L1.04343 19.8583C0.783162 19.8588 0.53215 19.7614 0.33982 19.5855C0.147489 19.4095 0.0277784 19.1676 0.00426232 18.9075C-0.0192538 18.6474 0.0551285 18.3879 0.212762 18.1801C0.370395 17.9722 0.599855 17.8312 0.855955 17.7846L1.04343 17.7679H4.29918C4.53012 16.8703 5.0518 16.0752 5.78217 15.5076C6.51255 14.9401 7.4102 14.6322 8.33397 14.6324ZM8.33397 16.7228C7.78152 16.7228 7.2517 16.943 6.86106 17.335C6.47042 17.727 6.25096 18.2587 6.25096 18.8131C6.25096 19.3675 6.47042 19.8992 6.86106 20.2912C7.2517 20.6832 7.78152 20.9034 8.33397 20.9034C8.88642 20.9034 9.41624 20.6832 9.80689 20.2912C10.1975 19.8992 10.417 19.3675 10.417 18.8131C10.417 18.2587 10.1975 17.727 9.80689 17.335C9.41624 16.943 8.88642 16.7228 8.33397 16.7228ZM16.666 1.35123e-07C17.5898 -0.000235473 18.4874 0.307648 19.2178 0.875239C19.9482 1.44283 20.4699 2.23793 20.7008 3.13552H23.9566C24.2168 3.13504 24.4678 3.23236 24.6602 3.40832C24.8525 3.58429 24.9722 3.82614 24.9957 4.08625C25.0193 4.34636 24.9449 4.60588 24.7872 4.81371C24.6296 5.02154 24.4001 5.16261 24.144 5.20914L23.9566 5.22586L20.7008 5.22795C20.4707 6.1263 19.9493 6.92233 19.2189 7.49072C18.4884 8.05911 17.5903 8.36759 16.666 8.36759C15.7417 8.36759 14.8436 8.05911 14.1132 7.49072C13.3827 6.92233 12.8614 6.1263 12.6312 5.22795L1.04343 5.22586C0.783162 5.22634 0.53215 5.12902 0.33982 4.95305C0.147489 4.77709 0.0277784 4.53524 0.00426232 4.27513C-0.0192538 4.01501 0.0551285 3.75549 0.212762 3.54767C0.370395 3.33984 0.599855 3.19877 0.855955 3.15224L1.04343 3.13552H12.6312C12.8622 2.23793 13.3838 1.44283 14.1142 0.875239C14.8446 0.307648 15.7423 -0.000235473 16.666 1.35123e-07ZM16.666 2.09034C16.1136 2.09034 15.5838 2.31058 15.1931 2.70259C14.8025 3.09461 14.583 3.62629 14.583 4.18069C14.583 4.73508 14.8025 5.26677 15.1931 5.65878C15.5838 6.0508 16.1136 6.27103 16.666 6.27103C17.2185 6.27103 17.7483 6.0508 18.1389 5.65878C18.5296 5.26677 18.749 4.73508 18.749 4.18069C18.749 3.62629 18.5296 3.09461 18.1389 2.70259C17.7483 2.31058 17.2185 2.09034 16.666 2.09034Z" fill="#443E3E"/>
</svg>
