<svg width="20" height="23" viewBox="0 0 20 23" fill="none" xmlns="http://www.w3.org/2000/svg">
<path d="M7.66667 20.8095H12.0476C12.0476 22.0143 11.0619 23 9.85714 23C8.65238 23 7.66667 22.0143 7.66667 20.8095ZM19.7143 18.619V19.7143H0V18.619L2.19048 16.4286V9.85714C2.19048 6.46191 4.38095 3.50476 7.66667 2.51905V2.19048C7.66667 0.985714 8.65238 0 9.85714 0C11.0619 0 12.0476 0.985714 12.0476 2.19048V2.51905C15.3333 3.50476 17.5238 6.46191 17.5238 9.85714V16.4286L19.7143 18.619ZM15.3333 9.85714C15.3333 6.79048 12.9238 4.38095 9.85714 4.38095C6.79048 4.38095 4.38095 6.79048 4.38095 9.85714V17.5238H15.3333V9.85714Z" fill="#443E3E"/>
</svg>
